<?xml version="1.0" encoding="UTF-8"?>
<svg version="1.1" viewBox="0 0 1422.3 1319.9" xmlns="http://www.w3.org/2000/svg">
 <g transform="translate(-991.1 98.372)">
  <path d="m1702.2-79.312c-162.62 0-310.51 65.609-420.59 172.75h-271.5v936.28h271.5c110.08 107.14 257.98 172.75 420.59 172.75 162.62 0 310.51-65.611 420.59-172.75h271.53v-936.28h-271.53c-110-107.12-257.9-172.73-420.6-172.73z" color="#000000" fill="none" stroke="#000" stroke-linecap="round" stroke-width="8"/>
  <path d="m1699.3-59.406c-147.49 0.21645-292.56 61.038-399.25 161.75-10.158 13.184-28.739 12.296-43.75 11.353-75.394-0.8101-150.79 0.0482-226.19-0.25913 1e-4 298.76 0 597.52 0 896.28 86.573-1e-4 173.15 0 259.72 0 129.75 132.77 326.42 197.46 509.67 164.58 117.78-20.307 227.87-78.498 313.26-161.67 23.703-7.7466 49.052 0.3013 73.406-2.8152 62.719-0.1749 125.44-0.056 188.16-0.091v-896.28h-259.72c-108.1-109.33-260.9-174.33-415.3-172.82z" color="#000000" fill="none" stroke="#000" stroke-linecap="round" stroke-width="8"/>
  <path transform="matrix(-.99989 .012595 -.012595 -.99989 2517.3 148)" d="m831.48 237.56a19.06 19.06 0 1 1 -38.119 0 19.06 19.06 0 1 1 38.119 0z" color="#000000"/>
  <path transform="matrix(-.99799 .062945 -.062945 -.99799 2488.8 107.96)" d="m831.48 237.56a19.06 19.06 0 1 1 -38.119 0 19.06 19.06 0 1 1 38.119 0z" color="#000000"/>
  <path transform="matrix(-.99042 .13789 -.13789 -.99042 2461.8 49.059)" d="m831.48 237.56a19.06 19.06 0 1 1 -38.119 0 19.06 19.06 0 1 1 38.119 0z" color="#000000"/>
  <path transform="matrix(-.9823 .18718 -.18718 -.9823 2428.5 13.411)" d="m831.48 237.56a19.06 19.06 0 1 1 -38.119 0 19.06 19.06 0 1 1 38.119 0z" color="#000000"/>
  <path transform="matrix(-.96567 .25967 -.25967 -.96567 2394.4 -40.586)" d="m831.48 237.56a19.06 19.06 0 1 1 -38.119 0 19.06 19.06 0 1 1 38.119 0z" color="#000000"/>
  <path transform="matrix(-.94395 .33 -.33 -.94395 2356.2 -91.603)" d="m831.48 237.56a19.06 19.06 0 1 1 -38.119 0 19.06 19.06 0 1 1 38.119 0z" color="#000000"/>
  <path transform="matrix(-.9268 .37548 -.37548 -.9268 2316.7 -118.91)" d="m831.48 237.56a19.06 19.06 0 1 1 -38.119 0 19.06 19.06 0 1 1 38.119 0z" color="#000000"/>
  <path transform="matrix(-.89732 .44133 -.44133 -.89732 2273 -163.35)" d="m831.48 237.56a19.06 19.06 0 1 1 -38.119 0 19.06 19.06 0 1 1 38.119 0z" color="#000000"/>
  <path transform="matrix(-.86361 .50412 -.50412 -.86361 2226.2 -204.08)" d="m831.48 237.56a19.06 19.06 0 1 1 -38.119 0 19.06 19.06 0 1 1 38.119 0z" color="#000000"/>
  <path transform="matrix(-.83894 .54418 -.54418 -.83894 2182.5 -222.04)" d="m831.48 237.56a19.06 19.06 0 1 1 -38.119 0 19.06 19.06 0 1 1 38.119 0z" color="#000000"/>
  <path transform="matrix(-.79887 .60147 -.60147 -.79887 2131.9 -255.57)" d="m831.48 237.56a19.06 19.06 0 1 1 -38.119 0 19.06 19.06 0 1 1 38.119 0z" color="#000000"/>
  <path transform="matrix(-.75534 .6553 -.6553 -.75534 2079.1 -285.19)" d="m831.48 237.56a19.06 19.06 0 1 1 -38.119 0 19.06 19.06 0 1 1 38.119 0z" color="#000000"/>
  <path transform="matrix(-1 0 0 -1 2093.3 331)" d="m831.48 237.56a19.06 19.06 0 1 1 -38.119 0 19.06 19.06 0 1 1 38.119 0z" color="#000000"/>
  <path transform="matrix(-1 0 0 -1 2054.4 331)" d="m831.48 237.56a19.06 19.06 0 1 1 -38.119 0 19.06 19.06 0 1 1 38.119 0z" color="#000000"/>
  <path transform="matrix(-1 0 0 -1 2015.5 331)" d="m831.48 237.56a19.06 19.06 0 1 1 -38.119 0 19.06 19.06 0 1 1 38.119 0z" color="#000000"/>
  <path transform="matrix(-1 0 0 -1 1976.6 331)" d="m831.48 237.56a19.06 19.06 0 1 1 -38.119 0 19.06 19.06 0 1 1 38.119 0z" color="#000000"/>
  <path transform="matrix(-1 0 0 -1 1937.7 331)" d="m831.48 237.56a19.06 19.06 0 1 1 -38.119 0 19.06 19.06 0 1 1 38.119 0z" color="#000000"/>
  <path transform="matrix(-1 0 0 -1 1898.8 331)" d="m831.48 237.56a19.06 19.06 0 1 1 -38.119 0 19.06 19.06 0 1 1 38.119 0z" color="#000000"/>
  <path transform="matrix(-1 0 0 -1 1859.9 331)" d="m831.48 237.56a19.06 19.06 0 1 1 -38.119 0 19.06 19.06 0 1 1 38.119 0z" color="#000000"/>
  <path transform="matrix(0 1 -1 0 1247.7 -717.38)" d="m831.48 237.56a19.06 19.06 0 1 1 -38.119 0 19.06 19.06 0 1 1 38.119 0z" color="#000000"/>
  <path transform="matrix(0 1 -1 0 1247.7 -678.48)" d="m831.48 237.56a19.06 19.06 0 1 1 -38.119 0 19.06 19.06 0 1 1 38.119 0z" color="#000000"/>
  <path transform="matrix(0 1 -1 0 1247.7 -639.58)" d="m831.48 237.56a19.06 19.06 0 1 1 -38.119 0 19.06 19.06 0 1 1 38.119 0z" color="#000000"/>
  <path transform="matrix(0 1 -1 0 1247.7 -600.69)" d="m831.48 237.56a19.06 19.06 0 1 1 -38.119 0 19.06 19.06 0 1 1 38.119 0z" color="#000000"/>
  <path transform="matrix(0 1 -1 0 1247.7 -561.79)" d="m831.48 237.56a19.06 19.06 0 1 1 -38.119 0 19.06 19.06 0 1 1 38.119 0z" color="#000000"/>
  <path transform="matrix(0 1 -1 0 1247.7 -522.89)" d="m831.48 237.56a19.06 19.06 0 1 1 -38.119 0 19.06 19.06 0 1 1 38.119 0z" color="#000000"/>
  <path transform="matrix(0 1 -1 0 1247.7 -483.99)" d="m831.48 237.56a19.06 19.06 0 1 1 -38.119 0 19.06 19.06 0 1 1 38.119 0z" color="#000000"/>
  <path transform="matrix(0 1 -1 0 1247.7 -445.09)" d="m831.48 237.56a19.06 19.06 0 1 1 -38.119 0 19.06 19.06 0 1 1 38.119 0z" color="#000000"/>
  <path transform="matrix(0 1 -1 0 1247.7 -406.19)" d="m831.48 237.56a19.06 19.06 0 1 1 -38.119 0 19.06 19.06 0 1 1 38.119 0z" color="#000000"/>
  <path transform="matrix(0 1 -1 0 1247.7 -367.29)" d="m831.48 237.56a19.06 19.06 0 1 1 -38.119 0 19.06 19.06 0 1 1 38.119 0z" color="#000000"/>
  <path transform="matrix(0 1 -1 0 1247.7 -328.4)" d="m831.48 237.56a19.06 19.06 0 1 1 -38.119 0 19.06 19.06 0 1 1 38.119 0z" color="#000000"/>
  <path transform="matrix(0 1 -1 0 1247.7 -289.5)" d="m831.48 237.56a19.06 19.06 0 1 1 -38.119 0 19.06 19.06 0 1 1 38.119 0z" color="#000000"/>
  <path transform="matrix(0 1 -1 0 1247.7 -250.6)" d="m831.48 237.56a19.06 19.06 0 1 1 -38.119 0 19.06 19.06 0 1 1 38.119 0z" color="#000000"/>
  <path transform="matrix(0 1 -1 0 1247.7 -211.7)" d="m831.48 237.56a19.06 19.06 0 1 1 -38.119 0 19.06 19.06 0 1 1 38.119 0z" color="#000000"/>
  <path transform="matrix(0 1 -1 0 1247.7 -172.8)" d="m831.48 237.56a19.06 19.06 0 1 1 -38.119 0 19.06 19.06 0 1 1 38.119 0z" color="#000000"/>
  <path transform="matrix(0 1 -1 0 1247.7 -133.9)" d="m831.48 237.56a19.06 19.06 0 1 1 -38.119 0 19.06 19.06 0 1 1 38.119 0z" color="#000000"/>
  <path transform="matrix(0 1 -1 0 1247.7 -95.004)" d="m831.48 237.56a19.06 19.06 0 1 1 -38.119 0 19.06 19.06 0 1 1 38.119 0z" color="#000000"/>
  <path transform="matrix(0 1 -1 0 1247.7 -56.105)" d="m831.48 237.56a19.06 19.06 0 1 1 -38.119 0 19.06 19.06 0 1 1 38.119 0z" color="#000000"/>
  <path transform="matrix(0 1 -1 0 1247.7 -17.206)" d="m831.48 237.56a19.06 19.06 0 1 1 -38.119 0 19.06 19.06 0 1 1 38.119 0z" color="#000000"/>
  <path transform="matrix(0 1 -1 0 1247.7 21.692)" d="m831.48 237.56a19.06 19.06 0 1 1 -38.119 0 19.06 19.06 0 1 1 38.119 0z" color="#000000"/>
  <path transform="matrix(0 1 -1 0 1247.7 60.591)" d="m831.48 237.56a19.06 19.06 0 1 1 -38.119 0 19.06 19.06 0 1 1 38.119 0z" color="#000000"/>
  <path transform="matrix(0 1 -1 0 1247.7 99.49)" d="m831.48 237.56a19.06 19.06 0 1 1 -38.119 0 19.06 19.06 0 1 1 38.119 0z" color="#000000"/>
  <path transform="matrix(0 1 -1 0 1247.7 138.39)" d="m831.48 237.56a19.06 19.06 0 1 1 -38.119 0 19.06 19.06 0 1 1 38.119 0z" color="#000000"/>
  <path transform="matrix(0 1 -1 0 1247.7 177.29)" d="m831.48 237.56a19.06 19.06 0 1 1 -38.119 0 19.06 19.06 0 1 1 38.119 0z" color="#000000"/>
  <path transform="matrix(0 1 -1 0 1247.7 216.19)" d="m831.48 237.56a19.06 19.06 0 1 1 -38.119 0 19.06 19.06 0 1 1 38.119 0z" color="#000000"/>
  <path transform="translate(235.52 792.16)" d="m831.48 237.56a19.06 19.06 0 1 1 -38.119 0 19.06 19.06 0 1 1 38.119 0z" color="#000000"/>
  <path transform="translate(274.42 792.16)" d="m831.48 237.56a19.06 19.06 0 1 1 -38.119 0 19.06 19.06 0 1 1 38.119 0z" color="#000000"/>
  <path transform="translate(313.32 792.16)" d="m831.48 237.56a19.06 19.06 0 1 1 -38.119 0 19.06 19.06 0 1 1 38.119 0z" color="#000000"/>
  <path transform="translate(352.22 792.16)" d="m831.48 237.56a19.06 19.06 0 1 1 -38.119 0 19.06 19.06 0 1 1 38.119 0z" color="#000000"/>
  <path transform="translate(391.12 792.16)" d="m831.48 237.56a19.06 19.06 0 1 1 -38.119 0 19.06 19.06 0 1 1 38.119 0z" color="#000000"/>
  <path transform="translate(430.01 792.16)" d="m831.48 237.56a19.06 19.06 0 1 1 -38.119 0 19.06 19.06 0 1 1 38.119 0z" color="#000000"/>
  <path transform="translate(468.91 792.16)" d="m831.48 237.56a19.06 19.06 0 1 1 -38.119 0 19.06 19.06 0 1 1 38.119 0z" color="#000000"/>
  <path transform="matrix(.75534 .6553 -.6553 .75534 852.15 343.91)" d="m831.48 237.56a19.06 19.06 0 1 1 -38.119 0 19.06 19.06 0 1 1 38.119 0z" color="#000000"/>
  <path transform="matrix(.79887 .60147 -.60147 .79887 834.26 401.73)" d="m831.48 237.56a19.06 19.06 0 1 1 -38.119 0 19.06 19.06 0 1 1 38.119 0z" color="#000000"/>
  <path transform="matrix(.83894 .54418 -.54418 .83894 819.81 461.26)" d="m831.48 237.56a19.06 19.06 0 1 1 -38.119 0 19.06 19.06 0 1 1 38.119 0z" color="#000000"/>
  <path transform="matrix(.86361 .50412 -.50412 .86361 823.36 508.37)" d="m831.48 237.56a19.06 19.06 0 1 1 -38.119 0 19.06 19.06 0 1 1 38.119 0z" color="#000000"/>
  <path transform="matrix(.89732 .44133 -.44133 .89732 815.39 569.63)" d="m831.48 237.56a19.06 19.06 0 1 1 -38.119 0 19.06 19.06 0 1 1 38.119 0z" color="#000000"/>
  <path transform="matrix(.9268 .37548 -.37548 .9268 811.22 632.15)" d="m831.48 237.56a19.06 19.06 0 1 1 -38.119 0 19.06 19.06 0 1 1 38.119 0z" color="#000000"/>
  <path transform="matrix(.94395 .33 -.33 .94395 822.89 678.72)" d="m831.48 237.56a19.06 19.06 0 1 1 -38.119 0 19.06 19.06 0 1 1 38.119 0z" color="#000000"/>
  <path transform="matrix(.96567 .25967 -.25967 .96567 825.76 741.94)" d="m831.48 237.56a19.06 19.06 0 1 1 -38.119 0 19.06 19.06 0 1 1 38.119 0z" color="#000000"/>
  <path transform="matrix(.9823 .18718 -.18718 .9823 832.91 805.7)" d="m831.48 237.56a19.06 19.06 0 1 1 -38.119 0 19.06 19.06 0 1 1 38.119 0z" color="#000000"/>
  <path transform="matrix(.99042 .13789 -.13789 .99042 852.98 850.12)" d="m831.48 237.56a19.06 19.06 0 1 1 -38.119 0 19.06 19.06 0 1 1 38.119 0z" color="#000000"/>
  <path transform="matrix(.99799 .062945 -.062945 .99799 867.73 912.95)" d="m831.48 237.56a19.06 19.06 0 1 1 -38.119 0 19.06 19.06 0 1 1 38.119 0z" color="#000000"/>
  <path transform="matrix(.99989 -.012595 .012595 .99989 887.11 975.16)" d="m831.48 237.56a19.06 19.06 0 1 1 -38.119 0 19.06 19.06 0 1 1 38.119 0z" color="#000000"/>
  <path transform="matrix(.99799 -.062947 .062947 .99799 915.56 1015.2)" d="m831.48 237.56a19.06 19.06 0 1 1 -38.119 0 19.06 19.06 0 1 1 38.119 0z" color="#000000"/>
  <path transform="matrix(.99042 -.13789 .13789 .99042 942.61 1074.1)" d="m831.48 237.56a19.06 19.06 0 1 1 -38.119 0 19.06 19.06 0 1 1 38.119 0z" color="#000000"/>
  <path transform="matrix(.9823 -.18718 .18718 .9823 975.87 1109.8)" d="m831.48 237.56a19.06 19.06 0 1 1 -38.119 0 19.06 19.06 0 1 1 38.119 0z" color="#000000"/>
  <path transform="matrix(.96567 -.25968 .25968 .96567 1010 1163.8)" d="m831.48 237.56a19.06 19.06 0 1 1 -38.119 0 19.06 19.06 0 1 1 38.119 0z" color="#000000"/>
  <path transform="matrix(.94395 -.33001 .33001 .94395 1048.2 1214.8)" d="m831.48 237.56a19.06 19.06 0 1 1 -38.119 0 19.06 19.06 0 1 1 38.119 0z" color="#000000"/>
  <path transform="matrix(.9268 -.37548 .37548 .9268 1087.7 1242.1)" d="m831.48 237.56a19.06 19.06 0 1 1 -38.119 0 19.06 19.06 0 1 1 38.119 0z" color="#000000"/>
  <path transform="matrix(.89732 -.44133 .44133 .89732 1131.4 1286.6)" d="m831.48 237.56a19.06 19.06 0 1 1 -38.119 0 19.06 19.06 0 1 1 38.119 0z" color="#000000"/>
  <path transform="matrix(.86361 -.50412 .50412 .86361 1178.2 1327.3)" d="m831.48 237.56a19.06 19.06 0 1 1 -38.119 0 19.06 19.06 0 1 1 38.119 0z" color="#000000"/>
  <path transform="matrix(.83894 -.54418 .54418 .83894 1221.8 1345.3)" d="m831.48 237.56a19.06 19.06 0 1 1 -38.119 0 19.06 19.06 0 1 1 38.119 0z" color="#000000"/>
  <path transform="matrix(.79887 -.60146 .60146 .79887 1272.5 1378.8)" d="m831.48 237.56a19.06 19.06 0 1 1 -38.119 0 19.06 19.06 0 1 1 38.119 0z" color="#000000"/>
  <path transform="matrix(.75535 -.65529 .65529 .75535 1325.3 1408.4)" d="m831.48 237.56a19.06 19.06 0 1 1 -38.119 0 19.06 19.06 0 1 1 38.119 0z" color="#000000"/>
  <path transform="translate(1311.1 792.16)" d="m831.48 237.56a19.06 19.06 0 1 1 -38.119 0 19.06 19.06 0 1 1 38.119 0z" color="#000000"/>
  <path transform="translate(1350 792.16)" d="m831.48 237.56a19.06 19.06 0 1 1 -38.119 0 19.06 19.06 0 1 1 38.119 0z" color="#000000"/>
  <path transform="translate(1388.9 792.16)" d="m831.48 237.56a19.06 19.06 0 1 1 -38.119 0 19.06 19.06 0 1 1 38.119 0z" color="#000000"/>
  <path transform="translate(1427.8 792.16)" d="m831.48 237.56a19.06 19.06 0 1 1 -38.119 0 19.06 19.06 0 1 1 38.119 0z" color="#000000"/>
  <path transform="translate(1466.7 792.16)" d="m831.48 237.56a19.06 19.06 0 1 1 -38.119 0 19.06 19.06 0 1 1 38.119 0z" color="#000000"/>
  <path transform="translate(1505.6 792.16)" d="m831.48 237.56a19.06 19.06 0 1 1 -38.119 0 19.06 19.06 0 1 1 38.119 0z" color="#000000"/>
  <path transform="translate(1544.5 792.16)" d="m831.48 237.56a19.06 19.06 0 1 1 -38.119 0 19.06 19.06 0 1 1 38.119 0z" color="#000000"/>
  <path transform="matrix(0 -1 1 0 2156.8 1840.7)" d="m831.48 237.56a19.06 19.06 0 1 1 -38.119 0 19.06 19.06 0 1 1 38.119 0z" color="#000000"/>
  <path transform="matrix(0 -1 1 0 2156.8 1801.8)" d="m831.48 237.56a19.06 19.06 0 1 1 -38.119 0 19.06 19.06 0 1 1 38.119 0z" color="#000000"/>
  <path transform="matrix(0 -1 1 0 2156.8 1762.9)" d="m831.48 237.56a19.06 19.06 0 1 1 -38.119 0 19.06 19.06 0 1 1 38.119 0z" color="#000000"/>
  <path transform="matrix(0 -1 1 0 2156.8 1724)" d="m831.48 237.56a19.06 19.06 0 1 1 -38.119 0 19.06 19.06 0 1 1 38.119 0z" color="#000000"/>
  <path transform="matrix(0 -1 1 0 2156.8 1685.1)" d="m831.48 237.56a19.06 19.06 0 1 1 -38.119 0 19.06 19.06 0 1 1 38.119 0z" color="#000000"/>
  <path transform="matrix(0 -1 1 0 2156.8 1646.2)" d="m831.48 237.56a19.06 19.06 0 1 1 -38.119 0 19.06 19.06 0 1 1 38.119 0z" color="#000000"/>
  <path transform="matrix(0 -1 1 0 2156.8 1607.3)" d="m831.48 237.56a19.06 19.06 0 1 1 -38.119 0 19.06 19.06 0 1 1 38.119 0z" color="#000000"/>
  <path transform="matrix(0 -1 1 0 2156.8 1568.4)" d="m831.48 237.56a19.06 19.06 0 1 1 -38.119 0 19.06 19.06 0 1 1 38.119 0z" color="#000000"/>
  <path transform="matrix(0 -1 1 0 2156.8 1529.5)" d="m831.48 237.56a19.06 19.06 0 1 1 -38.119 0 19.06 19.06 0 1 1 38.119 0z" color="#000000"/>
  <path transform="matrix(0 -1 1 0 2156.8 1490.6)" d="m831.48 237.56a19.06 19.06 0 1 1 -38.119 0 19.06 19.06 0 1 1 38.119 0z" color="#000000"/>
  <path transform="matrix(0 -1 1 0 2156.8 1451.7)" d="m831.48 237.56a19.06 19.06 0 1 1 -38.119 0 19.06 19.06 0 1 1 38.119 0z" color="#000000"/>
  <path transform="matrix(0 -1 1 0 2156.8 1412.8)" d="m831.48 237.56a19.06 19.06 0 1 1 -38.119 0 19.06 19.06 0 1 1 38.119 0z" color="#000000"/>
  <path transform="matrix(0 -1 1 0 2156.8 1373.9)" d="m831.48 237.56a19.06 19.06 0 1 1 -38.119 0 19.06 19.06 0 1 1 38.119 0z" color="#000000"/>
  <path transform="matrix(0 -1 1 0 2156.8 1335)" d="m831.48 237.56a19.06 19.06 0 1 1 -38.119 0 19.06 19.06 0 1 1 38.119 0z" color="#000000"/>
  <path transform="matrix(0 -1 1 0 2156.8 1296.1)" d="m831.48 237.56a19.06 19.06 0 1 1 -38.119 0 19.06 19.06 0 1 1 38.119 0z" color="#000000"/>
  <path transform="matrix(0 -1 1 0 2156.8 1257.2)" d="m831.48 237.56a19.06 19.06 0 1 1 -38.119 0 19.06 19.06 0 1 1 38.119 0z" color="#000000"/>
  <path transform="matrix(0 -1 1 0 2156.8 1218.3)" d="m831.48 237.56a19.06 19.06 0 1 1 -38.119 0 19.06 19.06 0 1 1 38.119 0z" color="#000000"/>
  <path transform="matrix(0 -1 1 0 2156.8 1179.4)" d="m831.48 237.56a19.06 19.06 0 1 1 -38.119 0 19.06 19.06 0 1 1 38.119 0z" color="#000000"/>
  <path transform="matrix(0 -1 1 0 2156.8 1140.5)" d="m831.48 237.56a19.06 19.06 0 1 1 -38.119 0 19.06 19.06 0 1 1 38.119 0z" color="#000000"/>
  <path transform="matrix(0 -1 1 0 2156.8 1101.6)" d="m831.48 237.56a19.06 19.06 0 1 1 -38.119 0 19.06 19.06 0 1 1 38.119 0z" color="#000000"/>
  <path transform="matrix(0 -1 1 0 2156.8 1062.7)" d="m831.48 237.56a19.06 19.06 0 1 1 -38.119 0 19.06 19.06 0 1 1 38.119 0z" color="#000000"/>
  <path transform="matrix(0 -1 1 0 2156.8 1023.8)" d="m831.48 237.56a19.06 19.06 0 1 1 -38.119 0 19.06 19.06 0 1 1 38.119 0z" color="#000000"/>
  <path transform="matrix(0 -1 1 0 2156.8 984.92)" d="m831.48 237.56a19.06 19.06 0 1 1 -38.119 0 19.06 19.06 0 1 1 38.119 0z" color="#000000"/>
  <path transform="matrix(0 -1 1 0 2156.8 946.02)" d="m831.48 237.56a19.06 19.06 0 1 1 -38.119 0 19.06 19.06 0 1 1 38.119 0z" color="#000000"/>
  <path transform="matrix(0 -1 1 0 2156.8 907.12)" d="m831.48 237.56a19.06 19.06 0 1 1 -38.119 0 19.06 19.06 0 1 1 38.119 0z" color="#000000"/>
  <path transform="matrix(-1 0 0 -1 3169.2 331)" d="m831.48 237.56a19.06 19.06 0 1 1 -38.119 0 19.06 19.06 0 1 1 38.119 0z" color="#000000"/>
  <path transform="matrix(-1 0 0 -1 3130.3 331)" d="m831.48 237.56a19.06 19.06 0 1 1 -38.119 0 19.06 19.06 0 1 1 38.119 0z" color="#000000"/>
  <path transform="matrix(-1 0 0 -1 3091.4 331)" d="m831.48 237.56a19.06 19.06 0 1 1 -38.119 0 19.06 19.06 0 1 1 38.119 0z" color="#000000"/>
  <path transform="matrix(-1 0 0 -1 3052.5 331)" d="m831.48 237.56a19.06 19.06 0 1 1 -38.119 0 19.06 19.06 0 1 1 38.119 0z" color="#000000"/>
  <path transform="matrix(-1 0 0 -1 3013.6 331)" d="m831.48 237.56a19.06 19.06 0 1 1 -38.119 0 19.06 19.06 0 1 1 38.119 0z" color="#000000"/>
  <path transform="matrix(-1 0 0 -1 2974.7 331)" d="m831.48 237.56a19.06 19.06 0 1 1 -38.119 0 19.06 19.06 0 1 1 38.119 0z" color="#000000"/>
  <path transform="matrix(-1 0 0 -1 2935.8 331)" d="m831.48 237.56a19.06 19.06 0 1 1 -38.119 0 19.06 19.06 0 1 1 38.119 0z" color="#000000"/>
  <path transform="matrix(-.75535 -.65529 .65529 -.75535 2552.5 779.36)" d="m831.48 237.56a19.06 19.06 0 1 1 -38.119 0 19.06 19.06 0 1 1 38.119 0z" color="#000000"/>
  <path transform="matrix(-.79887 -.60146 .60146 -.79887 2570.4 721.53)" d="m831.48 237.56a19.06 19.06 0 1 1 -38.119 0 19.06 19.06 0 1 1 38.119 0z" color="#000000"/>
  <path transform="matrix(-.83894 -.54418 .54418 -.83894 2584.8 661.99)" d="m831.48 237.56a19.06 19.06 0 1 1 -38.119 0 19.06 19.06 0 1 1 38.119 0z" color="#000000"/>
  <path transform="matrix(-.86361 -.50412 .50412 -.86361 2581.3 614.88)" d="m831.48 237.56a19.06 19.06 0 1 1 -38.119 0 19.06 19.06 0 1 1 38.119 0z" color="#000000"/>
  <path transform="matrix(-.89732 -.44133 .44133 -.89732 2589.3 553.61)" d="m831.48 237.56a19.06 19.06 0 1 1 -38.119 0 19.06 19.06 0 1 1 38.119 0z" color="#000000"/>
  <path transform="matrix(-.9268 -.37548 .37548 -.9268 2593.4 491.07)" d="m831.48 237.56a19.06 19.06 0 1 1 -38.119 0 19.06 19.06 0 1 1 38.119 0z" color="#000000"/>
  <path transform="matrix(-.94395 -.33001 .33001 -.94395 2581.8 444.5)" d="m831.48 237.56a19.06 19.06 0 1 1 -38.119 0 19.06 19.06 0 1 1 38.119 0z" color="#000000"/>
  <path transform="matrix(-.96567 -.25968 .25968 -.96567 2578.9 381.27)" d="m831.48 237.56a19.06 19.06 0 1 1 -38.119 0 19.06 19.06 0 1 1 38.119 0z" color="#000000"/>
  <path transform="matrix(-.9823 -.18718 .18718 -.9823 2571.8 317.49)" d="m831.48 237.56a19.06 19.06 0 1 1 -38.119 0 19.06 19.06 0 1 1 38.119 0z" color="#000000"/>
  <path transform="matrix(-.99042 -.13789 .13789 -.99042 2551.7 273.06)" d="m831.48 237.56a19.06 19.06 0 1 1 -38.119 0 19.06 19.06 0 1 1 38.119 0z" color="#000000"/>
  <path transform="matrix(-.99799 -.062947 .062947 -.99799 2536.9 210.22)" d="m831.48 237.56a19.06 19.06 0 1 1 -38.119 0 19.06 19.06 0 1 1 38.119 0z" color="#000000"/>
  <path transform="matrix(-.99989 -.012595 .012595 -.99989 2511.6 168.46)" d="m831.48 237.56a19.06 19.06 0 1 1 -38.119 0 19.06 19.06 0 1 1 38.119 0z" color="#000000"/>
  <path d="m1699.6-41.406c-145.9 0.22044-289.35 61.547-393.38 162.75-18.51 14.143-43.497 10.681-65.375 10.156-64.239-0.38201-128.48 0.0835-192.72-0.0625 0 286.76 1e-4 573.52 0 860.28h249.31c122.9 129.38 310.44 194.04 487.2 166.87 119.94-18.225 232.71-76.929 318.61-161.78 32.547-11.402 67.411-1.435 100.94-5.0064 50.719-0.16716 101.44-0.0544 152.16-0.0874v-860.28h-249.31c-104.9-109.08-255.3-174.24-407.4-172.82z" color="#000000" stroke="#000" stroke-linecap="round" stroke-width="8"/>
 </g>
</svg>
